# xmcd
#
# Track frame offsets:
#	150
#	16402
#	32214
#	51838
#	69599
#	84324
#	101502
#	119452
#	136017
#	152728
#	168823
#
# Disc length: 2494 seconds
#
# Revision: 1
# Processed by: cddbd v1.5.1PL2 Copyright (c) Steve Scherf et al.
# Submitted via: audiograbber 1.83.01
#
DISCID=8409bc0b
DTITLE=Ronnie Milsap - My Life
DYEAR=2006
DGENRE=Country
TTITLE0=You Don't Know My Love
TTITLE1=It's All Coming Back To Me Now
TTITLE2=My Life
TTITLE3=If It's Gonna Rain
TTITLE4=Time Keeps Slipping Away
TTITLE5=Why Can't I
TTITLE6=A Day In The Life Of America
TTITLE7=Somewhere Dry
TTITLE8=Local Girls
TTITLE9=Every Fire
TTITLE10=Accept My Love
EXTD=
EXTT0=
EXTT1=
EXTT2=
EXTT3=
EXTT4=
EXTT5=
EXTT6=
EXTT7=
EXTT8=
EXTT9=
EXTT10=
PLAYORDER=
